# xmcd
#
# Track frame offsets: 
#        150
#        20215
#        33622
#        44168
#        58358
#        68303
#        82370
#        95538
#        103376
#        119900
#        142593
#        155477
#        163135
#        182568
#        188607
#        212066
#        224665
#
# Disc length: 3060 seconds
#
# Revision: 0
# Processed by: cddbd v1.5.2PL0 Copyright (c) Steve Scherf et al.
# Submitted via: ExactAudioCopy v1.3
#
DISCID=0d0bf211
DTITLE=Ollie Watkins - Used To Keep Me Worried
DYEAR=2001
DGENRE=Blues
TTITLE0=Country Boy
TTITLE1=Let Me Go
TTITLE2=Mr. Lou Wants The Story Of My Life (Interview With Ollie)
TTITLE3=California Blues (Blues Yodel Number)
TTITLE4=Precious Lord
TTITLE5=Greyhound Bus
TTITLE6=Baby Doll
TTITLE7=Saw My Mother, When She Got Me Out Of The Nuthouse (Intervi
TTITLE7=ew With Ollie)
TTITLE8=Used To Keep Me Worried
TTITLE9=Woman I've Been Knowin'
TTITLE10=Lord I Want To Go Through
TTITLE11=I'm Twenty One
TTITLE12=Baby Doll (Alternate Take)
TTITLE13=I Ain't Never
TTITLE14=Call Him Mister Now...Respect Him (Interview With Ollie)
TTITLE15=Californai Blues (Blues Yodel Number) (Alternate Take)
TTITLE16=Twist
EXTD=
EXTT0=
EXTT1=
EXTT2=
EXTT3=
EXTT4=
EXTT5=
EXTT6=
EXTT7=
EXTT8=
EXTT9=
EXTT10=
EXTT11=
EXTT12=
EXTT13=
EXTT14=
EXTT15=
EXTT16=
PLAYORDER=
